<?xml version="1.0" encoding="UTF-8"?>
<svg id="Capa_1" data-name="Capa 1" xmlns="http://www.w3.org/2000/svg" xmlns:xlink="http://www.w3.org/1999/xlink" viewBox="0 0 117.08 117.08">
  <defs>
    <style>
      .cls-1 {
        stroke: url(#Degradado_sin_nombre_7);
      }

      .cls-1, .cls-2, .cls-3, .cls-4, .cls-5, .cls-6, .cls-7, .cls-8 {
        fill: none;
        stroke-dasharray: 0 0 2 2;
        stroke-linecap: round;
        stroke-miterlimit: 10;
        stroke-width: .5px;
      }

      .cls-2 {
        stroke: url(#Degradado_sin_nombre_6);
      }

      .cls-3 {
        stroke: url(#Degradado_sin_nombre_3);
      }

      .cls-4 {
        stroke: url(#Degradado_sin_nombre_5);
      }

      .cls-5 {
        stroke: url(#Degradado_sin_nombre_2);
      }

      .cls-6 {
        stroke: url(#Degradado_sin_nombre_8);
      }

      .cls-7 {
        stroke: url(#Degradado_sin_nombre_4);
      }

      .cls-8 {
        stroke: url(#Degradado_sin_nombre);
      }
    </style>
    <linearGradient id="Degradado_sin_nombre" data-name="Degradado sin nombre" x1=".04" y1="58.79" x2="22.45" y2="58.79" gradientTransform="translate(0 117.36) scale(1 -1)" gradientUnits="userSpaceOnUse">
      <stop offset=".18" stop-color="#46e1fc"/>
      <stop offset=".62" stop-color="#e14696"/>
    </linearGradient>
    <linearGradient id="Degradado_sin_nombre_2" data-name="Degradado sin nombre 2" x1="117.03" y1="58.79" x2="94.63" y2="58.79" gradientTransform="translate(0 117.36) scale(1 -1)" gradientUnits="userSpaceOnUse">
      <stop offset=".18" stop-color="#46e1fc"/>
      <stop offset=".62" stop-color="#e14696"/>
    </linearGradient>
    <linearGradient id="Degradado_sin_nombre_3" data-name="Degradado sin nombre 3" x1="17.04" y1="100.07" x2="32.88" y2="84.23" gradientTransform="translate(0 117.36) scale(1 -1)" gradientUnits="userSpaceOnUse">
      <stop offset=".18" stop-color="#46e1fc"/>
      <stop offset=".62" stop-color="#e14696"/>
    </linearGradient>
    <linearGradient id="Degradado_sin_nombre_4" data-name="Degradado sin nombre 4" x1="99.76" y1="17.35" x2="83.92" y2="33.19" gradientTransform="translate(0 117.36) scale(1 -1)" gradientUnits="userSpaceOnUse">
      <stop offset=".18" stop-color="#46e1fc"/>
      <stop offset=".62" stop-color="#e14696"/>
    </linearGradient>
    <linearGradient id="Degradado_sin_nombre_5" data-name="Degradado sin nombre 5" x1="58.57" y1="117.32" x2="58.57" y2="94.92" gradientTransform="translate(0 117.36) scale(1 -1)" gradientUnits="userSpaceOnUse">
      <stop offset=".18" stop-color="#46e1fc"/>
      <stop offset=".62" stop-color="#e14696"/>
    </linearGradient>
    <linearGradient id="Degradado_sin_nombre_6" data-name="Degradado sin nombre 6" x1="58.57" y1=".33" x2="58.57" y2="22.74" gradientTransform="translate(0 117.36) scale(1 -1)" gradientUnits="userSpaceOnUse">
      <stop offset=".18" stop-color="#46e1fc"/>
      <stop offset=".62" stop-color="#e14696"/>
    </linearGradient>
    <linearGradient id="Degradado_sin_nombre_7" data-name="Degradado sin nombre 7" x1="99.85" y1="100.09" x2="84.01" y2="84.25" gradientTransform="translate(0 117.36) scale(1 -1)" gradientUnits="userSpaceOnUse">
      <stop offset=".18" stop-color="#46e1fc"/>
      <stop offset=".62" stop-color="#e14696"/>
    </linearGradient>
    <linearGradient id="Degradado_sin_nombre_8" data-name="Degradado sin nombre 8" x1="17.13" y1="17.36" x2="32.97" y2="33.2" gradientTransform="translate(0 117.36) scale(1 -1)" gradientUnits="userSpaceOnUse">
      <stop offset=".18" stop-color="#46e1fc"/>
      <stop offset=".62" stop-color="#e14696"/>
    </linearGradient>
  </defs>
  <path class="cls-8" d="m6.5,75.66l14.65-14.5c1.44-1.43,1.44-3.75,0-5.18l-14.47-14.4c-1.49-1.48-4.02-1.58-5.45-.04-.64.69-.97,1.58-.97,2.47,0,.94.37,1.88,1.08,2.59l9.41,9.37c1.44,1.43,1.43,3.75,0,5.18l-9.33,9.23c-1.26,1.25-1.57,3.22-.59,4.7.73,1.1,1.91,1.66,3.08,1.66.94,0,1.88-.35,2.6-1.07h0Z"/>
  <path class="cls-5" d="m110.57,41.49l-14.65,14.5c-1.44,1.43-1.44,3.75,0,5.18l14.47,14.4c1.49,1.48,4.02,1.58,5.45.04.64-.69.97-1.58.97-2.47,0-.94-.37-1.88-1.08-2.59l-9.41-9.37c-1.44-1.43-1.43-3.75,0-5.18l9.33-9.23c1.26-1.25,1.57-3.22.59-4.7-.73-1.1-1.91-1.66-3.08-1.66-.94,0-1.88.35-2.6,1.07h0Z"/>
  <path class="cls-3" d="m9.52,33.94l20.61.1c2.03.01,3.67-1.63,3.67-3.66l-.05-20.42c0-2.1-1.73-3.96-3.83-3.89-.94.03-1.81.43-2.43,1.06-.66.67-1.07,1.59-1.07,2.6l.03,13.28c0,2.03-1.64,3.67-3.67,3.66l-13.12-.07c-1.77,0-3.39,1.17-3.74,2.9-.26,1.29.18,2.52,1,3.35.66.66,1.57,1.08,2.59,1.08h0Z"/>
  <path class="cls-7" d="m107.27,83.37l-20.61-.1c-2.03-.01-3.67,1.63-3.67,3.66l.05,20.42c0,2.1,1.73,3.96,3.83,3.89.94-.03,1.81-.43,2.43-1.06.66-.67,1.07-1.59,1.07-2.6l-.03-13.28c0-2.03,1.64-3.67,3.67-3.66l13.12.07c1.77,0,3.39-1.17,3.74-2.9.26-1.29-.18-2.52-1-3.35-.66-.66-1.57-1.08-2.59-1.08h0Z"/>
  <path class="cls-4" d="m41.49,6.5l14.5,14.65c1.43,1.44,3.75,1.44,5.18,0l14.4-14.47c1.48-1.49,1.58-4.02.04-5.45-.69-.64-1.58-.97-2.47-.97-.94,0-1.88.37-2.59,1.08l-9.37,9.41c-1.43,1.44-3.75,1.43-5.18,0L46.78,1.42c-1.25-1.26-3.22-1.57-4.7-.59-1.1.73-1.66,1.91-1.66,3.08,0,.94.35,1.88,1.07,2.6h0Z"/>
  <path class="cls-2" d="m75.66,110.57l-14.5-14.65c-1.43-1.44-3.75-1.44-5.18,0l-14.4,14.47c-1.48,1.49-1.58,4.02-.04,5.45.69.64,1.58.97,2.47.97.94,0,1.88-.37,2.59-1.08l9.37-9.41c1.43-1.44,3.75-1.43,5.18,0l9.23,9.33c1.25,1.26,3.22,1.57,4.7.59,1.1-.73,1.66-1.91,1.66-3.08,0-.94-.35-1.88-1.07-2.6h0Z"/>
  <path class="cls-1" d="m83.2,9.77l-.1,20.61c-.01,2.03,1.63,3.67,3.66,3.67l20.42-.05c2.1,0,3.96-1.73,3.89-3.83-.03-.94-.43-1.81-1.06-2.43-.67-.66-1.59-1.07-2.6-1.07l-13.28.03c-2.03,0-3.67-1.64-3.66-3.67l.07-13.12c0-1.77-1.17-3.39-2.9-3.74-1.29-.26-2.52.18-3.35,1-.66.66-1.08,1.57-1.08,2.59h0Z"/>
  <path class="cls-6" d="m33.78,107.51l.1-20.61c.01-2.03-1.63-3.67-3.66-3.67l-20.42.05c-2.1,0-3.96,1.73-3.89,3.83.03.94.43,1.81,1.06,2.43.67.66,1.59,1.07,2.6,1.07l13.28-.03c2.03,0,3.67,1.64,3.66,3.67l-.06,13.12c0,1.77,1.17,3.39,2.9,3.74,1.29.26,2.52-.18,3.35-1,.66-.66,1.08-1.57,1.08-2.59h0Z"/>
</svg>