<?xml version="1.0" encoding="UTF-8" standalone="no"?>

<svg
   width="46.618843mm"
   height="13.450108mm"
   viewBox="0 0 46.618843 13.450108"
   version="1.1"
   id="svg5"
   xmlns="http://www.w3.org/2000/svg"
   xml:space="preserve"
   fill-rule="evenodd" 
   xmlns:svg="http://www.w3.org/2000/svg">
  <defs
     id="defs2">
    <linearGradient
       id="paint0_linear_1_395"
       x1="3.15341"
       y1="8.4131603"
       x2="84.112099"
       y2="55.164398"
       gradientUnits="userSpaceOnUse">
      <stop
         offset="0.08"
         stop-color="#51C9E4"
         id="stop11" />
      <stop
         offset="0.6"
         stop-color="#CF6597"
         id="stop13" />
    </linearGradient>
  </defs>
  <g
     id="layer1"
     transform="translate(-36.091707,-111.71864)">
    <g
       style="fill:none"
       id="g26"
       transform="matrix(0.26458333,0,0,0.26458333,35.961482,111.51607)">
      <path
         d="M 77.3224,20.8993 C 76.0278,16.7852 74.7475,12.6711 73.4673,8.55701 72.2445,4.58675 67.9722,1.35013 63.9588,1.35013 c -5.2362,0 -8.2858,4.44496 -9.6236,7.0918 -0.9638,1.81247 -1.8125,3.33727 -2.6181,4.80457 -1.1651,2.1002 -2.2584,4.0854 -3.553,6.6315 l -1.2515,2.4454 c -3.0353,5.8979 -6.0561,11.7957 -9.077,17.708 -0.5754,1.122 -1.683,1.5248 -2.8194,1.0069 -0.7337,-0.3308 -1.0501,-0.9206 -1.0358,-1.9851 v -0.8487 c 0,-2.129 0,-4.2724 0,-6.4013 V 28.0055 C 33.9517,24.1647 33.9517,20.1945 33.8654,16.2817 33.8222,13.8219 33.1173,11.434 31.7652,9.18995 28.6724,4.01135 24.0836,1.19189 18.1282,0.803497 14.6326,0.573338 11.4104,1.39328 8.54778,3.23456 3.28288,6.62942 0.592882,11.4772 0.535342,17.6627 0.492188,24.7114 0.492188,31.8751 0.492188,38.7943 c 0,3.6538 0,7.3075 0,10.9613 0,0.2158 0.028769,0.5467 0.258929,0.7624 0.215775,0.2158 0.517863,0.2446 0.791173,0.2446 1.79813,0 3.66818,0 5.49507,0 h 2.0139 c 0.44593,0 1.05014,-0.1007 1.05014,-1.007 V 30.1201 c 0,-4.0853 0,-8.1707 0,-12.256 0,-1.381 0.3164,-2.6325 0.9781,-3.812 1.1221,-2.0139 3.0497,-3.3517 5.2649,-3.6538 2.201,-0.3021 4.4019,0.4747 6.013,2.1146 1.2227,1.2371 2.0139,3.3517 2.0139,5.3656 0,7.25 0,16.0824 0,23.3324 0,0.1583 -0.0576,3.8984 2.6612,6.6747 1.87,1.9132 4.5744,2.877 8.07,2.877 2.9777,0 7.883,0 10.7168,-5.38 L 62.362,14.0808 c 0.3597,-0.6904 0.7337,-0.9206 1.4817,-0.9206 0.6617,0 1.0501,0.3596 1.3234,1.1796 1.7406,5.5382 3.4956,11.0764 5.2361,16.6003 l 2.0715,6.5739 c 1.309,4.1429 2.6181,8.3001 3.9271,12.443 0.1726,0.561 0.5178,0.82 1.122,0.8056 h 9.1201 z"
         fill="url(#paint0_linear_1_395)"
         id="path9"
         style="fill:url(#paint0_linear_1_395)" />
    </g>
    <g
       id="g37"
       transform="matrix(0.26458333,0,0,0.26458333,56.126935,111.79423)">
      <path
         d="M 16.2832,49.0035 0.546007,1.43229 0.445312,1.04389 c 0,-0.445932 0.287698,-0.676092 0.863098,-0.676092 h 8.11313 c 0.5754,0 0.96376,0.25893 1.16516,0.776792 L 21.2172,36.2871 c 0.0576,0.1295 0.1583,0.187 0.2877,0.187 0.1295,0 0.2302,-0.0575 0.2877,-0.187 L 32.3224,1.14459 c 0.1871,-0.517862 0.5755,-0.776792 1.1652,-0.776792 l 8.1132,0.100695 c 0.7048,0 0.9638,0.359625 0.7768,1.064487 L 26.7267,48.9891 c -0.187,0.5178 -0.5754,0.7768 -1.1652,0.7768 h -8.1131 c -0.5754,0 -0.9638,-0.259 -1.1652,-0.7768 z"
         fill="#fff"
         id="path28" />
    </g>
    <g
       id="g48"
       transform="matrix(0.26458333,0,0,0.26458333,68.08889,111.88601)">
      <path
         d="M 0.460938,48.6982 V 1.34282 c 0,-0.647322 0.316467,-0.963792 0.963792,-0.963792 h 7.33635 c 0.64733,0 0.9638,0.330855 0.9638,0.963792 V 48.6982 c 0,0.6473 -0.31647,0.9638 -0.9638,0.9638 H 1.42473 c -0.647325,0 -0.963792,-0.3165 -0.963792,-0.9638 z"
         fill="#fff"
         id="path39" />
    </g>
    <g
       id="g59"
       transform="matrix(0.26458333,0,0,0.26458333,71.728623,111.50519)">
      <path
         d="m 41.4839,28.9423 c 0,0.6473 -0.3164,0.9638 -0.9638,0.9638 H 9.70747 c -0.25893,0 -0.3884,0.1294 -0.3884,0.3883 0,2.1866 0.18701,3.8696 0.5754,5.0204 0.70483,2.5749 2.14333,4.5888 4.30113,6.0417 2.1577,1.4529 4.8765,2.1721 8.1563,2.1721 4.7614,0 8.4296,-1.9563 11.0045,-5.8978 0.3165,-0.6473 0.7336,-0.7336 1.2515,-0.2877 l 5.5094,3.6682 c 0.446,0.3884 0.5467,0.8055 0.2877,1.2515 -1.7981,2.8913 -4.3586,5.1786 -7.6815,6.8616 -3.323,1.6687 -7.0631,2.5174 -11.2491,2.5174 -4.7039,0 -8.6598,-1.0357 -11.88201,-3.0928 C 6.37015,46.4919 3.95347,43.5574 2.34235,39.7598 0.803158,35.9621 0.0263672,31.3589 0.0263672,25.9502 0.0263672,21.2463 0.386,17.6788 1.09086,15.2334 2.25605,10.7884 4.57202,7.27846 8.03881,4.70355 11.5344,2.12863 15.7492,0.833984 20.712,0.833984 c 6.502,0 11.3641,1.625506 14.5864,4.876516 3.2222,3.251 5.1786,8.0268 5.8978,14.3418 0.2589,2.6469 0.3596,5.5958 0.2877,8.89 z M 13.8647,10.9322 c -1.7981,1.381 -3.0208,3.2367 -3.6681,5.5527 -0.44598,1.4241 -0.74806,3.2222 -0.86314,5.4087 0,0.2589 0.12947,0.3884 0.3884,0.3884 H 31.846 c 0.2589,0 0.3884,-0.1295 0.3884,-0.3884 -0.1295,-2.129 -0.3165,-3.6969 -0.5754,-4.7327 -0.6474,-2.5173 -1.9132,-4.5168 -3.8121,-6.0416 -1.8988,-1.51047 -4.2723,-2.27288 -7.1061,-2.27288 -2.8339,0 -5.0492,0.69048 -6.8617,2.07148 z"
         fill="#fff"
         id="path50" />
    </g>
  </g>
</svg>
